<svg width="16" height="16" viewBox="0 0 16 16" fill="none" xmlns="http://www.w3.org/2000/svg">
<g clip-path="url(#clip0_46_1709)">
<path d="M11.3335 4.66667C11.3335 4.84348 11.2633 5.01305 11.1383 5.13807C11.0133 5.2631 10.8437 5.33333 10.6669 5.33333H5.33354C5.15673 5.33333 4.98716 5.2631 4.86213 5.13807C4.73711 5.01305 4.66687 4.84348 4.66687 4.66667C4.66687 4.48986 4.73711 4.32029 4.86213 4.19526C4.98716 4.07024 5.15673 4 5.33354 4H10.6669C10.8437 4 11.0133 4.07024 11.1383 4.19526C11.2633 4.32029 11.3335 4.48986 11.3335 4.66667ZM15.3335 3.33333V12.6667C15.3325 13.5504 14.9809 14.3976 14.3561 15.0225C13.7312 15.6474 12.8839 15.9989 12.0002 16H4.0002C3.11647 15.9989 2.26924 15.6474 1.64435 15.0225C1.01946 14.3976 0.667929 13.5504 0.66687 12.6667V3.33333C0.667929 2.4496 1.01946 1.60237 1.64435 0.97748C2.26924 0.352588 3.11647 0.00105857 4.0002 0L12.0002 0C12.8839 0.00105857 13.7312 0.352588 14.3561 0.97748C14.9809 1.60237 15.3325 2.4496 15.3335 3.33333V3.33333ZM4.66687 12C4.66687 11.8681 4.62777 11.7393 4.55452 11.6296C4.48126 11.52 4.37714 11.4345 4.25533 11.3841C4.13351 11.3336 3.99946 11.3204 3.87014 11.3461C3.74082 11.3719 3.62203 11.4354 3.5288 11.5286C3.43556 11.6218 3.37207 11.7406 3.34635 11.8699C3.32062 11.9993 3.33383 12.1333 3.38428 12.2551C3.43474 12.3769 3.52019 12.4811 3.62982 12.5543C3.73946 12.6276 3.86835 12.6667 4.0002 12.6667C4.17701 12.6667 4.34658 12.5964 4.47161 12.4714C4.59663 12.3464 4.66687 12.1768 4.66687 12ZM4.66687 9.33333C4.66687 9.20148 4.62777 9.07259 4.55452 8.96295C4.48126 8.85332 4.37714 8.76787 4.25533 8.71741C4.13351 8.66696 3.99946 8.65375 3.87014 8.67948C3.74082 8.7052 3.62203 8.76869 3.5288 8.86193C3.43556 8.95516 3.37207 9.07395 3.34635 9.20327C3.32062 9.33259 3.33383 9.46664 3.38428 9.58846C3.43474 9.71027 3.52019 9.81439 3.62982 9.88765C3.73946 9.9609 3.86835 10 4.0002 10C4.17701 10 4.34658 9.92976 4.47161 9.80474C4.59663 9.67971 4.66687 9.51014 4.66687 9.33333ZM7.33354 12C7.33354 11.8681 7.29444 11.7393 7.22118 11.6296C7.14793 11.52 7.04381 11.4345 6.92199 11.3841C6.80018 11.3336 6.66613 11.3204 6.53681 11.3461C6.40749 11.3719 6.2887 11.4354 6.19547 11.5286C6.10223 11.6218 6.03874 11.7406 6.01301 11.8699C5.98729 11.9993 6.00049 12.1333 6.05095 12.2551C6.10141 12.3769 6.18686 12.4811 6.29649 12.5543C6.40612 12.6276 6.53502 12.6667 6.66687 12.6667C6.84368 12.6667 7.01325 12.5964 7.13827 12.4714C7.2633 12.3464 7.33354 12.1768 7.33354 12ZM7.33354 9.33333C7.33354 9.20148 7.29444 9.07259 7.22118 8.96295C7.14793 8.85332 7.04381 8.76787 6.92199 8.71741C6.80018 8.66696 6.66613 8.65375 6.53681 8.67948C6.40749 8.7052 6.2887 8.76869 6.19547 8.86193C6.10223 8.95516 6.03874 9.07395 6.01301 9.20327C5.98729 9.33259 6.00049 9.46664 6.05095 9.58846C6.10141 9.71027 6.18686 9.81439 6.29649 9.88765C6.40612 9.9609 6.53502 10 6.66687 10C6.84368 10 7.01325 9.92976 7.13827 9.80474C7.2633 9.67971 7.33354 9.51014 7.33354 9.33333ZM12.6669 12C12.6669 11.8232 12.5966 11.6536 12.4716 11.5286C12.3466 11.4036 12.177 11.3333 12.0002 11.3333H9.33354C9.15673 11.3333 8.98716 11.4036 8.86213 11.5286C8.73711 11.6536 8.66687 11.8232 8.66687 12C8.66687 12.1768 8.73711 12.3464 8.86213 12.4714C8.98716 12.5964 9.15673 12.6667 9.33354 12.6667H12.0002C12.177 12.6667 12.3466 12.5964 12.4716 12.4714C12.5966 12.3464 12.6669 12.1768 12.6669 12ZM9.33354 10C9.46539 10 9.59428 9.9609 9.70392 9.88765C9.81355 9.81439 9.899 9.71027 9.94946 9.58846C9.99992 9.46664 10.0131 9.33259 9.98739 9.20327C9.96167 9.07395 9.89818 8.95516 9.80494 8.86193C9.71171 8.76869 9.59292 8.7052 9.4636 8.67948C9.33428 8.65375 9.20023 8.66696 9.07841 8.71741C8.9566 8.76787 8.85248 8.85332 8.77922 8.96295C8.70597 9.07259 8.66687 9.20148 8.66687 9.33333C8.66687 9.51014 8.73711 9.67971 8.86213 9.80474C8.98716 9.92976 9.15673 10 9.33354 10ZM12.6669 9.33333C12.6669 9.20148 12.6278 9.07259 12.5545 8.96295C12.4813 8.85332 12.3771 8.76787 12.2553 8.71741C12.1335 8.66696 11.9995 8.65375 11.8701 8.67948C11.7408 8.7052 11.622 8.76869 11.5288 8.86193C11.4356 8.95516 11.3721 9.07395 11.3463 9.20327C11.3206 9.33259 11.3338 9.46664 11.3843 9.58846C11.4347 9.71027 11.5202 9.81439 11.6298 9.88765C11.7395 9.9609 11.8683 10 12.0002 10C12.177 10 12.3466 9.92976 12.4716 9.80474C12.5966 9.67971 12.6669 9.51014 12.6669 9.33333ZM12.6669 4.66667C12.6669 4.13623 12.4562 3.62753 12.0811 3.25245C11.706 2.87738 11.1973 2.66667 10.6669 2.66667H5.33354C4.8031 2.66667 4.2944 2.87738 3.91932 3.25245C3.54425 3.62753 3.33354 4.13623 3.33354 4.66667C3.33354 5.1971 3.54425 5.70581 3.91932 6.08088C4.2944 6.45595 4.8031 6.66667 5.33354 6.66667H10.6669C11.1973 6.66667 11.706 6.45595 12.0811 6.08088C12.4562 5.70581 12.6669 5.1971 12.6669 4.66667Z" fill="#004B5E"/>
</g>
<defs>
<clipPath id="clip0_46_1709">
<rect width="16" height="16" fill="white"/>
</clipPath>
</defs>
</svg>
