<svg width="24" height="24" viewBox="0 0 24 24" fill="none" xmlns="http://www.w3.org/2000/svg">
<path d="M12.524 15C12.7892 15 13.0436 15.1054 13.2311 15.2929C13.4186 15.4804 13.524 15.7348 13.524 16V19C13.524 19.7956 13.8401 20.5587 14.4027 21.1213C14.9653 21.6839 15.7284 22 16.524 22H19C19.7956 22 20.5587 21.6839 21.1213 21.1213C21.6839 20.5587 22 19.7956 22 19V5C22 4.20435 21.6839 3.44129 21.1213 2.87868C20.5587 2.31607 19.7956 2 19 2H16.524C15.7284 2 14.9653 2.31607 14.4027 2.87868C13.8401 3.44129 13.524 4.20435 13.524 5V8C13.524 8.26522 13.4186 8.51957 13.2311 8.70711C13.0436 8.89464 12.7892 9 12.524 9C12.2588 9 12.0044 8.89464 11.8169 8.70711C11.6294 8.51957 11.524 8.26522 11.524 8V5C11.5256 3.67441 12.0529 2.40356 12.9902 1.46622C13.9276 0.528882 15.1984 0.00158786 16.524 0H19C20.3256 0.00158786 21.5964 0.528882 22.5338 1.46622C23.4711 2.40356 23.9984 3.67441 24 5V19C23.9984 20.3256 23.4711 21.5964 22.5338 22.5338C21.5964 23.4711 20.3256 23.9984 19 24H16.524C15.1984 23.9984 13.9276 23.4711 12.9902 22.5338C12.0529 21.5964 11.5256 20.3256 11.524 19V16C11.524 15.7348 11.6294 15.4804 11.8169 15.2929C12.0044 15.1054 12.2588 15 12.524 15Z" fill="white"/>
<path d="M1.13288 9.8792L5.71888 5.2932C5.81112 5.19769 5.92147 5.12151 6.04347 5.0691C6.16548 5.01669 6.29669 4.98911 6.42947 4.98795C6.56225 4.9868 6.69393 5.0121 6.81683 5.06238C6.93973 5.11266 7.05138 5.18692 7.14527 5.28081C7.23916 5.3747 7.31342 5.48635 7.3637 5.60925C7.41398 5.73215 7.43928 5.86383 7.43813 5.9966C7.43697 6.12938 7.40939 6.2606 7.35698 6.38261C7.30457 6.50461 7.22839 6.61496 7.13288 6.7072L2.86988 10.9702L17.9999 11.0002C18.2651 11.0002 18.5194 11.1056 18.707 11.2931C18.8945 11.4806 18.9999 11.735 18.9999 12.0002C18.9999 12.2654 18.8945 12.5198 18.707 12.7073C18.5194 12.8948 18.2651 13.0002 17.9999 13.0002L2.81188 12.9702L7.13488 17.2932C7.23039 17.3855 7.30657 17.4958 7.35898 17.6178C7.41139 17.7398 7.43897 17.871 7.44013 18.0038C7.44128 18.1366 7.41598 18.2683 7.3657 18.3912C7.31542 18.5141 7.24116 18.6257 7.14727 18.7196C7.05338 18.8135 6.94173 18.8877 6.81883 18.938C6.69593 18.9883 6.56425 19.0136 6.43147 19.0125C6.2987 19.0113 6.16748 18.9837 6.04547 18.9313C5.92347 18.8789 5.81312 18.8027 5.72088 18.7072L1.13488 14.1212C0.572197 13.5589 0.25589 12.7961 0.255516 12.0006C0.25514 11.2051 0.570726 10.4421 1.13288 9.8792Z" fill="white"/>
</svg>
