<svg width="16" height="16" viewBox="0 0 16 16" fill="none" xmlns="http://www.w3.org/2000/svg">
<path d="M14.0122 8.95128C13.498 8.95137 13.0041 9.15175 12.6351 9.5099L11.8505 9.11759C12.491 7.01715 11.3074 4.79525 9.20697 4.15481C8.43865 3.92056 7.61737 3.9245 6.85134 4.16609L6.39143 3.33575C7.12962 2.52743 7.07278 1.27375 6.26446 0.53559C5.45615 -0.202598 4.2025 -0.145754 3.46431 0.662559C2.72612 1.47087 2.78296 2.72453 3.59128 3.46272C3.95796 3.79759 4.437 3.98262 4.93356 3.98118C5.02887 3.97847 5.12387 3.96893 5.21784 3.95268L5.67375 4.77637C3.9469 6.05784 3.55937 8.48375 4.801 10.2394L2.86996 12.0949C1.84553 11.6361 0.643152 12.0947 0.18437 13.1191C-0.274411 14.1435 0.18412 15.3459 1.20856 15.8047C2.233 16.2635 3.43537 15.8049 3.89415 14.7805C4.14978 14.2097 4.12837 13.553 3.83615 13.0001L5.72875 11.1811C7.49721 12.4619 9.96909 12.0678 11.2515 10.3004L12.0467 10.698C12.0341 10.7778 12.0266 10.8584 12.0242 10.9392C12.0242 12.0371 12.9142 12.9272 14.0122 12.9272C15.1102 12.9272 16.0002 12.0372 16.0002 10.9393C16.0002 9.84137 15.1101 8.95128 14.0122 8.95128Z" fill="#004B5E"/>
</svg>
