<svg width="14" height="16" viewBox="0 0 14 16" fill="none" xmlns="http://www.w3.org/2000/svg">
<path d="M11.7142 11.4751C12.9653 10.2095 13.667 8.50167 13.667 6.72207C13.667 4.94247 12.9653 3.23464 11.7142 1.96907C11.0978 1.34522 10.3638 0.849922 9.55458 0.511873C8.74538 0.173825 7.87714 -0.000244141 7.00017 -0.000244141C6.1232 -0.000244141 5.25495 0.173825 4.44576 0.511873C3.63657 0.849922 2.90252 1.34522 2.28617 1.96907C1.03213 3.23755 0.330261 4.95026 0.333507 6.73398C0.336754 8.51769 1.04485 10.2278 2.3035 11.4917L4.69283 13.7177C5.30474 14.3227 6.12989 14.663 6.99038 14.6653C7.85087 14.6675 8.67778 14.3315 9.29283 13.7297L11.7142 11.4751ZM7.89483 9.76574C7.61681 9.90342 7.31075 9.97504 7.0005 9.97504C6.69025 9.97504 6.38419 9.90342 6.10617 9.76574L4.77283 9.09907C4.43979 8.93385 4.15966 8.67867 3.96419 8.36242C3.76871 8.04618 3.66571 7.68152 3.66683 7.30974V5.33307C3.66552 4.96125 3.76837 4.5965 3.96373 4.28013C4.15908 3.96376 4.43914 3.70843 4.77217 3.54307L6.1055 2.87641C6.3834 2.73828 6.68951 2.6664 6.99983 2.6664C7.31016 2.6664 7.61627 2.73828 7.89417 2.87641L9.2275 3.54307C9.56065 3.70834 9.84085 3.96363 10.0363 4.28C10.2318 4.59638 10.3348 4.96118 10.3335 5.33307V7.31041C10.3347 7.68211 10.2318 8.04673 10.0364 8.36296C9.84108 8.6792 9.56109 8.93443 9.22817 9.09974L7.89483 9.76574ZM8.96617 5.12907C8.98804 5.19489 8.99952 5.26372 9.00017 5.33307V7.31041C9.00069 7.43439 8.96642 7.55604 8.90124 7.66151C8.83607 7.76699 8.74262 7.85207 8.6315 7.90707L7.29817 8.57374C7.20546 8.61979 7.10335 8.64375 6.99983 8.64375C6.89632 8.64375 6.79421 8.61979 6.7015 8.57374L5.36817 7.90707C5.25707 7.85192 5.16369 7.7667 5.09863 7.6611C5.03357 7.5555 4.99946 7.43377 5.00017 7.30974V5.33307C5.00123 5.26506 5.0127 5.19761 5.03417 5.13307L6.4875 5.85974C6.64669 5.9393 6.82221 5.98073 7.00017 5.98073C7.17813 5.98073 7.35365 5.9393 7.51283 5.85974L8.96617 5.12907ZM12.3335 15.3331C12.3335 15.5099 12.2633 15.6795 12.1382 15.8045C12.0132 15.9295 11.8436 15.9997 11.6668 15.9997H2.3335C2.15669 15.9997 1.98712 15.9295 1.8621 15.8045C1.73707 15.6795 1.66683 15.5099 1.66683 15.3331C1.66683 15.1563 1.73707 14.9867 1.8621 14.8617C1.98712 14.7366 2.15669 14.6664 2.3335 14.6664H11.6668C11.8436 14.6664 12.0132 14.7366 12.1382 14.8617C12.2633 14.9867 12.3335 15.1563 12.3335 15.3331Z" fill="#004B5E"/>
</svg>
