<svg width="14" height="14" viewBox="0 0 14 14" fill="none" xmlns="http://www.w3.org/2000/svg">
<g clip-path="url(#clip0_8_934)">
<path d="M12.7064 5.08235C12.4554 4.83049 12.1569 4.63091 11.8282 4.49516C11.4996 4.35941 11.1472 4.2902 10.7916 4.29152H2.01665L4.34582 1.96235C4.44724 1.8605 4.50405 1.72252 4.50374 1.57878C4.50344 1.43505 4.44604 1.29731 4.34419 1.19589C4.24234 1.09447 4.10436 1.03766 3.96062 1.03797C3.81689 1.03827 3.67916 1.09566 3.57773 1.19752L0.896482 3.87822C0.642615 4.13217 0.5 4.47654 0.5 4.83562C0.5 5.1947 0.642615 5.53907 0.896482 5.79302L3.57773 8.47481C3.62802 8.52524 3.68775 8.56527 3.75352 8.59262C3.81928 8.61997 3.88979 8.6341 3.96101 8.6342C4.03223 8.6343 4.10277 8.62037 4.16861 8.59321C4.23445 8.56605 4.2943 8.52618 4.34473 8.47589C4.39516 8.4256 4.4352 8.36587 4.46255 8.30011C4.4899 8.23434 4.50402 8.16384 4.50412 8.09262C4.50423 8.02139 4.4903 7.95085 4.46313 7.88501C4.43597 7.81917 4.39611 7.75932 4.34582 7.70889L2.01015 5.37485H10.7916C11.2226 5.37485 11.636 5.54605 11.9407 5.8508C12.2454 6.15555 12.4166 6.56887 12.4166 6.99985V10.7915C12.4166 11.2225 12.2454 11.6358 11.9407 11.9406C11.636 12.2453 11.2226 12.4165 10.7916 12.4165H3.20832C3.06466 12.4165 2.92688 12.4736 2.8253 12.5752C2.72372 12.6767 2.66665 12.8145 2.66665 12.9582C2.66665 13.1018 2.72372 13.2396 2.8253 13.3412C2.92688 13.4428 3.06466 13.4998 3.20832 13.4998H10.7916C11.5097 13.499 12.1981 13.2134 12.7058 12.7056C13.2135 12.1979 13.4991 11.5095 13.5 10.7915V6.99985C13.5012 6.64362 13.4317 6.2907 13.2954 5.96155C13.1592 5.63239 12.959 5.33355 12.7064 5.08235Z" fill="#A6A6A6"/>
</g>
<defs>
<clipPath id="clip0_8_934">
<rect width="13" height="13" fill="white" transform="translate(0.5 0.5)"/>
</clipPath>
</defs>
</svg>
