<svg width="20" height="20" viewBox="0 0 20 20" fill="none" xmlns="http://www.w3.org/2000/svg">
<g clip-path="url(#clip0_43_159)">
<path d="M19.9999 8.10314V15.8331C19.9986 16.9378 19.5591 17.9968 18.778 18.778C17.9969 19.5591 16.9379 19.9985 15.8332 19.9998H14.9999C14.7789 19.9998 14.5669 19.912 14.4106 19.7557C14.2543 19.5994 14.1665 19.3875 14.1665 19.1665C14.1665 18.9455 14.2543 18.7335 14.4106 18.5772C14.5669 18.4209 14.7789 18.3331 14.9999 18.3331H15.8332C16.4963 18.3331 17.1321 18.0697 17.601 17.6009C18.0698 17.1321 18.3332 16.4962 18.3332 15.8331V8.10314C18.3332 7.6939 18.2328 7.29092 18.0407 6.92957C17.8486 6.56821 17.5708 6.25954 17.2316 6.03064L11.3982 2.0948C10.986 1.81381 10.4987 1.66352 9.99988 1.66352C9.50103 1.66352 9.01374 1.81381 8.60155 2.0948L2.76821 6.03064C2.42898 6.25954 2.15113 6.56821 1.95905 6.92957C1.76696 7.29092 1.66652 7.6939 1.66655 8.10314V15.8331C1.66655 16.4962 1.92994 17.1321 2.39878 17.6009C2.86762 18.0697 3.50351 18.3331 4.16655 18.3331H4.99988C5.2209 18.3331 5.43286 18.4209 5.58914 18.5772C5.74542 18.7335 5.83322 18.9455 5.83322 19.1665C5.83322 19.3875 5.74542 19.5994 5.58914 19.7557C5.43286 19.912 5.2209 19.9998 4.99988 19.9998H4.16655C3.06189 19.9985 2.00285 19.5591 1.22173 18.778C0.440616 17.9968 0.00120441 16.9378 -0.000118806 15.8331V8.10314C-0.000972869 7.42124 0.16578 6.74958 0.485468 6.14726C0.805156 5.54493 1.26798 5.03042 1.83321 4.64897L7.66655 0.712304C8.35427 0.245599 9.16625 -0.00390625 9.99738 -0.00390625C10.8285 -0.00390625 11.6405 0.245599 12.3282 0.712304L18.1616 4.64897C18.7273 5.03022 19.1909 5.54457 19.5114 6.14684C19.8319 6.74911 19.9997 7.42088 19.9999 8.10314ZM15.8332 12.5056C15.8354 13.2719 15.6855 14.031 15.3922 14.7389C15.099 15.4468 14.6682 16.0895 14.1249 16.6298L11.1957 19.4948C10.8751 19.8053 10.4462 19.9789 9.99988 19.9789C9.55355 19.9789 9.12471 19.8053 8.80405 19.4948L5.88155 16.6365C5.20188 15.9589 4.69987 15.1242 4.42004 14.2062C4.1402 13.2882 4.09118 12.3153 4.27732 11.3738C4.46346 10.4323 4.87901 9.55134 5.48713 8.8089C6.09526 8.06646 6.87716 7.48553 7.76353 7.11761C8.64991 6.74968 9.61336 6.60613 10.5685 6.69968C11.5236 6.79323 12.4409 7.12099 13.2391 7.6539C14.0372 8.18681 14.6915 8.90841 15.1441 9.75473C15.5966 10.601 15.8333 11.5459 15.8332 12.5056ZM14.1665 12.5056C14.1666 11.8204 13.9976 11.1458 13.6746 10.5415C13.3516 9.93724 12.8846 9.42192 12.3149 9.04123C11.7452 8.66053 11.0904 8.4262 10.4085 8.359C9.72664 8.2918 9.0387 8.3938 8.40565 8.65597C7.77259 8.91813 7.21396 9.33237 6.77924 9.862C6.34451 10.3916 6.0471 11.0203 5.91336 11.6923C5.77962 12.3643 5.81366 13.0589 6.01249 13.7146C6.21131 14.3703 6.56878 14.9669 7.05322 15.4515L9.96988 18.3031L12.9532 15.4448C13.3396 15.0593 13.6457 14.6011 13.854 14.0966C14.0622 13.5921 14.1685 13.0514 14.1665 12.5056ZM12.4999 12.4998C12.4999 12.9943 12.3533 13.4776 12.0786 13.8887C11.8039 14.2999 11.4134 14.6203 10.9566 14.8095C10.4998 14.9987 9.99711 15.0482 9.51216 14.9518C9.0272 14.8553 8.58175 14.6172 8.23211 14.2676C7.88248 13.9179 7.64438 13.4725 7.54792 12.9875C7.45146 12.5026 7.50096 11.9999 7.69018 11.5431C7.8794 11.0863 8.19983 10.6958 8.61096 10.4211C9.02208 10.1464 9.50543 9.99981 9.99988 9.99981C10.6629 9.99981 11.2988 10.2632 11.7676 10.732C12.2365 11.2009 12.4999 11.8368 12.4999 12.4998Z" fill="white"/>
</g>
<defs>
<clipPath id="clip0_43_159">
<rect width="20" height="20" fill="white"/>
</clipPath>
</defs>
</svg>
