<svg width="20" height="20" viewBox="0 0 20 20" fill="none" xmlns="http://www.w3.org/2000/svg">
<g clip-path="url(#clip0_43_157)">
<path d="M1.66668 0H10.8334C11.7538 0 12.5 0.746211 12.5 1.66668V7.5C12.5 8.42047 11.7538 9.16668 10.8333 9.16668H1.66668C0.746211 9.16668 0 8.42047 0 7.5V1.66668C0 0.746211 0.746211 0 1.66668 0Z" fill="white"/>
<path d="M15.8333 0H18.3333C19.2538 0 20 0.746211 20 1.66668V7.5C20 8.42047 19.2538 9.16668 18.3333 9.16668H15.8333C14.9128 9.16668 14.1666 8.42047 14.1666 7.5V1.66668C14.1667 0.746211 14.9128 0 15.8333 0Z" fill="white"/>
<path d="M1.66668 10.8333H4.16668C5.08715 10.8333 5.83336 11.5795 5.83336 12.5V18.3333C5.83336 19.2538 5.08715 20 4.16668 20H1.66668C0.746211 20 0 19.2538 0 18.3333V12.5C0 11.5795 0.746211 10.8333 1.66668 10.8333Z" fill="white"/>
<path d="M9.16668 10.8333H18.3334C19.2538 10.8333 20 11.5795 20 12.5V18.3333C20 19.2538 19.2538 20 18.3333 20H9.16668C8.24621 20 7.5 19.2538 7.5 18.3333V12.5C7.5 11.5795 8.24621 10.8333 9.16668 10.8333Z" fill="white"/>
</g>
<defs>
<clipPath id="clip0_43_157">
<rect width="20" height="20" fill="white"/>
</clipPath>
</defs>
</svg>
