<svg width="13" height="14" viewBox="0 0 13 14" fill="none" xmlns="http://www.w3.org/2000/svg">
<g clip-path="url(#clip0_4_850)">
<path fill-rule="evenodd" clip-rule="evenodd" d="M4.99531 4.74806C5.4407 4.45047 5.96432 4.29163 6.49998 4.29163C7.21801 4.29249 7.90639 4.5781 8.41411 5.08583C8.92184 5.59355 9.20745 6.28193 9.20831 6.99996C9.20831 7.53562 9.04947 8.05925 8.75188 8.50463C8.45428 8.95001 8.0313 9.29715 7.53642 9.50213C7.04153 9.70712 6.49698 9.76075 5.97161 9.65625C5.44625 9.55175 4.96367 9.29381 4.5849 8.91504C4.20613 8.53627 3.94819 8.05369 3.84369 7.52833C3.73919 7.00296 3.79282 6.45841 3.99781 5.96353C4.20279 5.46864 4.54993 5.04566 4.99531 4.74806ZM5.59718 8.3511C5.86441 8.52965 6.17859 8.62496 6.49998 8.62496C6.93096 8.62496 7.34428 8.45375 7.64903 8.14901C7.95378 7.84426 8.12498 7.43094 8.12498 6.99996C8.12498 6.67856 8.02968 6.36439 7.85112 6.09716C7.67256 5.82993 7.41877 5.62165 7.12184 5.49865C6.82491 5.37566 6.49818 5.34348 6.18296 5.40618C5.86774 5.46888 5.57819 5.62365 5.35093 5.85091C5.12367 6.07817 4.96891 6.36772 4.9062 6.68294C4.8435 6.99816 4.87568 7.32489 4.99868 7.62182C5.12167 7.91875 5.32995 8.17254 5.59718 8.3511Z" fill="#A6A6A6"/>
<path fill-rule="evenodd" clip-rule="evenodd" d="M6.50027 1.93823C9.85427 1.93823 11.7653 4.23382 12.6054 5.60207C12.8651 6.02213 13.0027 6.50624 13.0027 7.00011C13.0027 7.49398 12.8651 7.97808 12.6054 8.39815C11.7653 9.7664 9.85427 12.062 6.50027 12.062C3.14627 12.062 1.23527 9.7664 0.395147 8.39815C0.135433 7.97808 -0.00213623 7.49398 -0.00213623 7.00011C-0.00213623 6.50624 0.135433 6.02213 0.395147 5.60207C1.23527 4.23382 3.14627 1.93823 6.50027 1.93823ZM6.50027 10.9786C9.32723 10.9786 10.9604 9.00427 11.6819 7.83102C11.8362 7.58134 11.9179 7.29362 11.9179 7.00011C11.9179 6.70659 11.8362 6.41887 11.6819 6.16919C10.9604 4.99377 9.32723 3.02157 6.50027 3.02157C3.67331 3.02157 2.04019 4.99594 1.31869 6.16919C1.16439 6.41887 1.08266 6.70659 1.08266 7.00011C1.08266 7.29362 1.16439 7.58134 1.31869 7.83102C2.04019 9.00427 3.67331 10.9786 6.50027 10.9786Z" fill="#A6A6A6"/>
</g>
<defs>
<clipPath id="clip0_4_850">
<rect width="13" height="13" fill="white" transform="translate(0 0.5)"/>
</clipPath>
</defs>
</svg>
