<svg width="16" height="16" viewBox="0 0 16 16" fill="none" xmlns="http://www.w3.org/2000/svg">
<g clip-path="url(#clip0_10_2245)">
<path d="M15.514 6.27923C14.48 4.59523 12.128 1.7699 8.00003 1.7699C3.87203 1.7699 1.52003 4.59523 0.486034 6.27923C0.166386 6.79624 -0.00292969 7.39206 -0.00292969 7.9999C-0.00292969 8.60774 0.166386 9.20356 0.486034 9.72056C1.52003 11.4046 3.87203 14.2299 8.00003 14.2299C12.128 14.2299 14.48 11.4046 15.514 9.72056C15.8337 9.20356 16.003 8.60774 16.003 7.9999C16.003 7.39206 15.8337 6.79624 15.514 6.27923V6.27923ZM14.3774 9.02256C13.4894 10.4666 11.4794 12.8966 8.00003 12.8966C4.5207 12.8966 2.5107 10.4666 1.6227 9.02256C1.43279 8.71526 1.3322 8.36115 1.3322 7.9999C1.3322 7.63865 1.43279 7.28453 1.6227 6.97723C2.5107 5.53323 4.5207 3.10323 8.00003 3.10323C11.4794 3.10323 13.4894 5.53056 14.3774 6.97723C14.5673 7.28453 14.6679 7.63865 14.6679 7.9999C14.6679 8.36115 14.5673 8.71526 14.3774 9.02256V9.02256Z" fill="#004B5E"/>
<path d="M7.99935 4.66656C7.34008 4.66656 6.69561 4.86206 6.14745 5.22833C5.59929 5.5946 5.17204 6.1152 4.91975 6.72429C4.66746 7.33337 4.60145 8.0036 4.73007 8.6502C4.85868 9.2968 5.17615 9.89075 5.64233 10.3569C6.1085 10.8231 6.70245 11.1406 7.34905 11.2692C7.99565 11.3978 8.66587 11.3318 9.27496 11.0795C9.88405 10.8272 10.4046 10.4 10.7709 9.8518C11.1372 9.30363 11.3327 8.65917 11.3327 7.9999C11.3316 7.11617 10.9801 6.26894 10.3552 5.64404C9.73031 5.01915 8.88308 4.66762 7.99935 4.66656V4.66656ZM7.99935 9.9999C7.60379 9.9999 7.21711 9.8826 6.88821 9.66284C6.55931 9.44307 6.30297 9.13072 6.15159 8.76526C6.00022 8.39981 5.96061 7.99768 6.03778 7.60972C6.11495 7.22176 6.30543 6.86539 6.58514 6.58568C6.86484 6.30598 7.22121 6.1155 7.60917 6.03833C7.99713 5.96116 8.39927 6.00076 8.76472 6.15214C9.13017 6.30351 9.44253 6.55986 9.66229 6.88876C9.88205 7.21766 9.99935 7.60434 9.99935 7.9999C9.99935 8.53033 9.78864 9.03904 9.41356 9.41411C9.03849 9.78918 8.52978 9.9999 7.99935 9.9999Z" fill="#004B5E"/>
</g>
<defs>
<clipPath id="clip0_10_2245">
<rect width="16" height="16" fill="white"/>
</clipPath>
</defs>
</svg>
