<svg width="16" height="16" viewBox="0 0 16 16" fill="none" xmlns="http://www.w3.org/2000/svg">
<g clip-path="url(#clip0_46_1754)">
<path d="M12.7142 11.4751C13.9653 10.2095 14.667 8.50167 14.667 6.72207C14.667 4.94247 13.9653 3.23464 12.7142 1.96907C12.0978 1.34522 11.3638 0.849922 10.5546 0.511873C9.74538 0.173825 8.87714 -0.000244141 8.00017 -0.000244141C7.1232 -0.000244141 6.25495 0.173825 5.44576 0.511873C4.63657 0.849922 3.90252 1.34522 3.28617 1.96907C2.03213 3.23755 1.33026 4.95026 1.33351 6.73398C1.33675 8.51769 2.04485 10.2278 3.3035 11.4917L5.69283 13.7177C6.30474 14.3227 7.12989 14.663 7.99038 14.6653C8.85087 14.6675 9.67778 14.3315 10.2928 13.7297L12.7142 11.4751ZM8.89483 9.76574C8.61681 9.90342 8.31075 9.97504 8.0005 9.97504C7.69025 9.97504 7.38419 9.90342 7.10617 9.76574L5.77283 9.09907C5.43979 8.93385 5.15966 8.67867 4.96419 8.36242C4.76871 8.04618 4.66571 7.68152 4.66683 7.30974V5.33307C4.66552 4.96125 4.76837 4.5965 4.96373 4.28013C5.15908 3.96376 5.43914 3.70844 5.77217 3.54307L7.1055 2.87641C7.3834 2.73828 7.68951 2.6664 7.99984 2.6664C8.31016 2.6664 8.61627 2.73828 8.89417 2.87641L10.2275 3.54307C10.5607 3.70834 10.8408 3.96363 11.0363 4.28C11.2318 4.59638 11.3348 4.96118 11.3335 5.33307V7.31041C11.3347 7.68211 11.2318 8.04673 11.0364 8.36296C10.8411 8.6792 10.5611 8.93443 10.2282 9.09974L8.89483 9.76574ZM9.96617 5.12907C9.98804 5.19489 9.99952 5.26372 10.0002 5.33307V7.31041C10.0007 7.43439 9.96642 7.55604 9.90125 7.66151C9.83607 7.76699 9.74262 7.85207 9.6315 7.90707L8.29817 8.57374C8.20546 8.61979 8.10335 8.64375 7.99984 8.64375C7.89632 8.64375 7.79421 8.61979 7.7015 8.57374L6.36817 7.90707C6.25707 7.85192 6.16369 7.7667 6.09863 7.6611C6.03357 7.5555 5.99946 7.43377 6.00017 7.30974V5.33307C6.00123 5.26506 6.0127 5.19761 6.03417 5.13307L7.4875 5.85974C7.64669 5.9393 7.82221 5.98073 8.00017 5.98073C8.17813 5.98073 8.35365 5.9393 8.51283 5.85974L9.96617 5.12907ZM13.3335 15.3331C13.3335 15.5099 13.2633 15.6795 13.1382 15.8045C13.0132 15.9295 12.8436 15.9997 12.6668 15.9997H3.3335C3.15669 15.9997 2.98712 15.9295 2.8621 15.8045C2.73707 15.6795 2.66683 15.5099 2.66683 15.3331C2.66683 15.1563 2.73707 14.9867 2.8621 14.8617C2.98712 14.7366 3.15669 14.6664 3.3335 14.6664H12.6668C12.8436 14.6664 13.0132 14.7366 13.1382 14.8617C13.2633 14.9867 13.3335 15.1563 13.3335 15.3331Z" fill="#004B5E"/>
</g>
<defs>
<clipPath id="clip0_46_1754">
<rect width="16" height="16" fill="white"/>
</clipPath>
</defs>
</svg>
