<svg width="20" height="20" viewBox="0 0 20 20" fill="none" xmlns="http://www.w3.org/2000/svg">
<g clip-path="url(#clip0_43_160)">
<path d="M19.1666 9.16717H17.4999V7.50051C17.4999 7.27949 17.4121 7.06753 17.2558 6.91125C17.0996 6.75497 16.8876 6.66718 16.6666 6.66718C16.4456 6.66718 16.2336 6.75497 16.0773 6.91125C15.921 7.06753 15.8332 7.27949 15.8332 7.50051V9.16717H14.1666C13.9456 9.16717 13.7336 9.25497 13.5773 9.41125C13.421 9.56753 13.3333 9.77949 13.3333 10.0005C13.3333 10.2215 13.421 10.4335 13.5773 10.5898C13.7336 10.746 13.9456 10.8338 14.1666 10.8338H15.8332V12.5005C15.8332 12.7215 15.921 12.9335 16.0773 13.0898C16.2336 13.246 16.4456 13.3338 16.6666 13.3338C16.8876 13.3338 17.0996 13.246 17.2558 13.0898C17.4121 12.9335 17.4999 12.7215 17.4999 12.5005V10.8338H19.1666C19.3876 10.8338 19.5995 10.746 19.7558 10.5898C19.9121 10.4335 19.9999 10.2215 19.9999 10.0005C19.9999 9.77949 19.9121 9.56753 19.7558 9.41125C19.5995 9.25497 19.3876 9.16717 19.1666 9.16717Z" fill="white"/>
<path d="M7.5 9.99994C8.48891 9.99994 9.45561 9.7067 10.2779 9.15729C11.1001 8.60788 11.741 7.82699 12.1194 6.91336C12.4978 5.99973 12.5969 4.99439 12.4039 4.02449C12.211 3.05458 11.7348 2.16367 11.0355 1.46441C10.3363 0.765145 9.44536 0.288941 8.47545 0.0960148C7.50555 -0.0969113 6.50021 0.00210539 5.58658 0.380544C4.67295 0.758982 3.89206 1.39984 3.34265 2.22209C2.79324 3.04434 2.5 4.01103 2.5 4.99994C2.50132 6.32562 3.02853 7.59662 3.96593 8.53401C4.90332 9.47141 6.17432 9.99862 7.5 9.99994ZM7.5 1.66661C8.15927 1.66661 8.80374 1.8621 9.3519 2.22838C9.90006 2.59465 10.3273 3.11524 10.5796 3.72433C10.8319 4.33342 10.8979 5.00364 10.7693 5.65024C10.6407 6.29685 10.3232 6.89079 9.85702 7.35696C9.39085 7.82314 8.79691 8.14061 8.1503 8.26923C7.5037 8.39784 6.83348 8.33183 6.22439 8.07954C5.6153 7.82725 5.09471 7.40001 4.72843 6.85184C4.36216 6.30368 4.16667 5.65921 4.16667 4.99994C4.16667 4.11589 4.51786 3.26804 5.14298 2.64292C5.7681 2.0178 6.61595 1.66661 7.5 1.66661Z" fill="white"/>
<path d="M7.5 11.6672C5.51155 11.6694 3.60518 12.4603 2.19914 13.8663C0.79309 15.2724 0.00220571 17.1787 0 19.1672C0 19.3882 0.0877974 19.6002 0.244078 19.7564C0.400358 19.9127 0.61232 20.0005 0.833333 20.0005C1.05435 20.0005 1.26631 19.9127 1.42259 19.7564C1.57887 19.6002 1.66667 19.3882 1.66667 19.1672C1.66667 17.6201 2.28125 16.1363 3.37521 15.0424C4.46917 13.9484 5.9529 13.3338 7.5 13.3338C9.0471 13.3338 10.5308 13.9484 11.6248 15.0424C12.7188 16.1363 13.3333 17.6201 13.3333 19.1672C13.3333 19.3882 13.4211 19.6002 13.5774 19.7564C13.7337 19.9127 13.9457 20.0005 14.1667 20.0005C14.3877 20.0005 14.5996 19.9127 14.7559 19.7564C14.9122 19.6002 15 19.3882 15 19.1672C14.9978 17.1787 14.2069 15.2724 12.8009 13.8663C11.3948 12.4603 9.48845 11.6694 7.5 11.6672Z" fill="white"/>
</g>
<defs>
<clipPath id="clip0_43_160">
<rect width="20" height="20" fill="white"/>
</clipPath>
</defs>
</svg>
