<svg width="16" height="16" viewBox="0 0 16 16" fill="none" xmlns="http://www.w3.org/2000/svg">
<g clip-path="url(#clip0_46_1745)">
<path d="M11.3334 4.66667C11.3334 4.84348 11.2632 5.01305 11.1382 5.13807C11.0131 5.2631 10.8436 5.33333 10.6667 5.33333H5.33342C5.1566 5.33333 4.98703 5.2631 4.86201 5.13807C4.73699 5.01305 4.66675 4.84348 4.66675 4.66667C4.66675 4.48986 4.73699 4.32029 4.86201 4.19526C4.98703 4.07024 5.1566 4 5.33342 4H10.6667C10.8436 4 11.0131 4.07024 11.1382 4.19526C11.2632 4.32029 11.3334 4.48986 11.3334 4.66667ZM15.3334 3.33333V12.6667C15.3324 13.5504 14.9808 14.3976 14.3559 15.0225C13.731 15.6474 12.8838 15.9989 12.0001 16H4.00008C3.11635 15.9989 2.26912 15.6474 1.64423 15.0225C1.01934 14.3976 0.667807 13.5504 0.666748 12.6667V3.33333C0.667807 2.4496 1.01934 1.60237 1.64423 0.97748C2.26912 0.352588 3.11635 0.00105857 4.00008 0L12.0001 0C12.8838 0.00105857 13.731 0.352588 14.3559 0.97748C14.9808 1.60237 15.3324 2.4496 15.3334 3.33333ZM4.66675 12C4.66675 11.8681 4.62765 11.7393 4.55439 11.6296C4.48114 11.52 4.37702 11.4345 4.2552 11.3841C4.13339 11.3336 3.99934 11.3204 3.87002 11.3461C3.7407 11.3719 3.62191 11.4354 3.52868 11.5286C3.43544 11.6218 3.37195 11.7406 3.34622 11.8699C3.3205 11.9993 3.3337 12.1333 3.38416 12.2551C3.43462 12.3769 3.52007 12.4811 3.6297 12.5543C3.73933 12.6276 3.86823 12.6667 4.00008 12.6667C4.17689 12.6667 4.34646 12.5964 4.47149 12.4714C4.59651 12.3464 4.66675 12.1768 4.66675 12ZM4.66675 9.33333C4.66675 9.20148 4.62765 9.07259 4.55439 8.96295C4.48114 8.85332 4.37702 8.76787 4.2552 8.71741C4.13339 8.66695 3.99934 8.65375 3.87002 8.67948C3.7407 8.7052 3.62191 8.76869 3.52868 8.86193C3.43544 8.95516 3.37195 9.07395 3.34622 9.20327C3.3205 9.33259 3.3337 9.46664 3.38416 9.58846C3.43462 9.71027 3.52007 9.81439 3.6297 9.88765C3.73933 9.9609 3.86823 10 4.00008 10C4.17689 10 4.34646 9.92976 4.47149 9.80474C4.59651 9.67971 4.66675 9.51014 4.66675 9.33333ZM7.33342 12C7.33342 11.8681 7.29432 11.7393 7.22106 11.6296C7.14781 11.52 7.04369 11.4345 6.92187 11.3841C6.80005 11.3336 6.66601 11.3204 6.53669 11.3461C6.40737 11.3719 6.28858 11.4354 6.19534 11.5286C6.10211 11.6218 6.03861 11.7406 6.01289 11.8699C5.98717 11.9993 6.00037 12.1333 6.05083 12.2551C6.10129 12.3769 6.18674 12.4811 6.29637 12.5543C6.406 12.6276 6.53489 12.6667 6.66675 12.6667C6.84356 12.6667 7.01313 12.5964 7.13815 12.4714C7.26318 12.3464 7.33342 12.1768 7.33342 12ZM7.33342 9.33333C7.33342 9.20148 7.29432 9.07259 7.22106 8.96295C7.14781 8.85332 7.04369 8.76787 6.92187 8.71741C6.80005 8.66695 6.66601 8.65375 6.53669 8.67948C6.40737 8.7052 6.28858 8.76869 6.19534 8.86193C6.10211 8.95516 6.03861 9.07395 6.01289 9.20327C5.98717 9.33259 6.00037 9.46664 6.05083 9.58846C6.10129 9.71027 6.18674 9.81439 6.29637 9.88765C6.406 9.9609 6.53489 10 6.66675 10C6.84356 10 7.01313 9.92976 7.13815 9.80474C7.26318 9.67971 7.33342 9.51014 7.33342 9.33333ZM12.6667 12C12.6667 11.8232 12.5965 11.6536 12.4715 11.5286C12.3465 11.4036 12.1769 11.3333 12.0001 11.3333H9.33342C9.1566 11.3333 8.98703 11.4036 8.86201 11.5286C8.73699 11.6536 8.66675 11.8232 8.66675 12C8.66675 12.1768 8.73699 12.3464 8.86201 12.4714C8.98703 12.5964 9.1566 12.6667 9.33342 12.6667H12.0001C12.1769 12.6667 12.3465 12.5964 12.4715 12.4714C12.5965 12.3464 12.6667 12.1768 12.6667 12ZM9.33342 10C9.46527 10 9.59416 9.9609 9.7038 9.88765C9.81343 9.81439 9.89888 9.71027 9.94934 9.58846C9.99979 9.46664 10.013 9.33259 9.98727 9.20327C9.96155 9.07395 9.89805 8.95516 9.80482 8.86193C9.71158 8.76869 9.5928 8.7052 9.46348 8.67948C9.33415 8.65375 9.20011 8.66695 9.07829 8.71741C8.95648 8.76787 8.85236 8.85332 8.7791 8.96295C8.70585 9.07259 8.66675 9.20148 8.66675 9.33333C8.66675 9.51014 8.73699 9.67971 8.86201 9.80474C8.98703 9.92976 9.1566 10 9.33342 10ZM12.6667 9.33333C12.6667 9.20148 12.6276 9.07259 12.5544 8.96295C12.4811 8.85332 12.377 8.76787 12.2552 8.71741C12.1334 8.66695 11.9993 8.65375 11.87 8.67948C11.7407 8.7052 11.6219 8.76869 11.5287 8.86193C11.4354 8.95516 11.3719 9.07395 11.3462 9.20327C11.3205 9.33259 11.3337 9.46664 11.3842 9.58846C11.4346 9.71027 11.5201 9.81439 11.6297 9.88765C11.7393 9.9609 11.8682 10 12.0001 10C12.1769 10 12.3465 9.92976 12.4715 9.80474C12.5965 9.67971 12.6667 9.51014 12.6667 9.33333ZM12.6667 4.66667C12.6667 4.13623 12.456 3.62753 12.081 3.25245C11.7059 2.87738 11.1972 2.66667 10.6667 2.66667H5.33342C4.80298 2.66667 4.29427 2.87738 3.9192 3.25245C3.54413 3.62753 3.33341 4.13623 3.33341 4.66667C3.33341 5.1971 3.54413 5.70581 3.9192 6.08088C4.29427 6.45595 4.80298 6.66667 5.33342 6.66667H10.6667C11.1972 6.66667 11.7059 6.45595 12.081 6.08088C12.456 5.70581 12.6667 5.1971 12.6667 4.66667Z" fill="#F6E71A"/>
</g>
<defs>
<clipPath id="clip0_46_1745">
<rect width="16" height="16" fill="white"/>
</clipPath>
</defs>
</svg>
